<svg width="500" height="500" xmlns="http://www.w3.org/2000/svg">

 <g>
  <title>background</title>
  <rect fill="none" id="canvas_background" height="402" width="582" y="-1" x="-1"/>
 </g>
 <g>
  <title>Layer 1</title>
  <path id="svg_1" fill-rule="evenodd" fill="#d1b3ff" d="m341.864,135.423c0,12.536 10.175,22.713 22.716,22.713c12.536,0 22.711,-10.177 22.711,-22.713c0,-12.538 -10.175,-22.715 -22.711,-22.715c-12.541,0 -22.716,10.177 -22.716,22.715zm-158.819,321.077c14.002,14.092 36.716,14.092 50.788,0l222.051,-220.592c8.902,-8.904 13.354,-20.625 13.179,-32.346l0,-127.56c0,-24.895 -20.179,-45.063 -45.064,-45.063l-127.56,0c-11.724,-0.182 -23.441,4.268 -32.353,13.176l-220.587,222.047c-14.09,14.076 -14.09,36.791 0,50.792l139.546,139.546zm122.479,-321.077c0,-32.615 26.437,-59.056 59.056,-59.056c32.615,0 59.052,26.441 59.052,59.056s-26.437,59.055 -59.052,59.055c-32.619,0 -59.056,-26.44 -59.056,-59.055z" clip-rule="evenodd"/>
 </g>
</svg>